<svg xmlns="http://www.w3.org/2000/svg" id="logo-oab" width="74.544" height="42.509" viewBox="0 0 74.544 42.509">
    <defs>
        <style>
            .cls-1{fill:#f9be49}.cls-2{fill:#fff}
        </style>
    </defs>
    <g id="Group_273">
        <path id="Path_21" d="M66.25 18.5V6.656H42.143L38.369 0l-4.052 6.656H8.279V18.5H0v.907a9.213 9.213 0 0 0 14.35 7.636l-1.024-1.503a7.375 7.375 0 0 1-11.439-5.207h10.225V18.5h-2V8.484h25.229l2.97-4.884 2.765 4.886h23.346v10.033h-7.373v1.814h15.608A7.37 7.37 0 0 1 59.7 24.165l-1.4 1.17a9.2 9.2 0 0 0 16.252-5.91v-.907H66.25z" class="cls-1"/>
        <g id="Group_269" transform="translate(13.341 31.948)">
            <g id="Group_261" transform="translate(0 .044)">
                <path id="Path_22" d="M91.2 225.341V218.7l4.535 4.739v-4.315h.936v6.6l-4.535-4.739v4.359z" class="cls-2" transform="translate(-91.2 -218.7)"/>
            </g>
            <g id="Group_262" transform="translate(6.319 .059)">
                <path id="Path_23" d="M138.759 223.905H136.1l-.688 1.507H134.4l3.072-6.612 2.969 6.612h-1.024zm-.395-.878l-.922-2.121-.965 2.121z" class="cls-2" transform="translate(-134.4 -218.8)"/>
            </g>
            <g id="Group_263" transform="translate(15.462)">
                <path id="Path_24" d="M196.9 225.085l1.3-6.685 2.136 4.827 2.209-4.827 1.17 6.685h-.951l-.6-3.759-1.843 4.037-1.785-4.037-.673 3.759z" class="cls-2" transform="translate(-196.9 -218.4)"/>
            </g>
            <g id="Group_264" transform="translate(23.595 .453)">
                <path id="Path_25" d="M255.938 222.392h-2.487v1.492h2.414v.878h-2.414v2.077h2.487v.878H252.5V221.5h3.438z" class="cls-2" transform="translate(-252.5 -221.5)"/>
            </g>
            <g id="Group_265" transform="translate(28.276 .468)">
                <path id="Path_26" d="M284.5 227.817V221.6h1.3a4.411 4.411 0 0 1 1.477.19 2.567 2.567 0 0 1 1.053.614 3.123 3.123 0 0 1-1.1 5.251 4.725 4.725 0 0 1-1.463.176H284.5zm.936-.892h.424a3.556 3.556 0 0 0 1.053-.132 2.148 2.148 0 0 0 .761-.453 2.1 2.1 0 0 0 .688-1.653 2.151 2.151 0 0 0-.688-1.653 2.569 2.569 0 0 0-1.814-.57h-.424v4.462z" class="cls-2" transform="translate(-284.5 -221.6)"/>
            </g>
            <g id="Group_266" transform="translate(34.259 .453)">
                <path id="Path_27" d="M326.336 221.5v6.217h-.936V221.5z" class="cls-2" transform="translate(-325.4 -221.5)"/>
            </g>
            <g id="Group_267" transform="translate(36.687 .468)">
                <path id="Path_28" d="M342 227.817V221.6h1.3a4.411 4.411 0 0 1 1.477.19 2.567 2.567 0 0 1 1.053.614 3.123 3.123 0 0 1-1.1 5.251 4.725 4.725 0 0 1-1.463.176H342zm.936-.892h.424a3.557 3.557 0 0 0 1.053-.132 2.148 2.148 0 0 0 .761-.453 2.1 2.1 0 0 0 .688-1.653 2.151 2.151 0 0 0-.688-1.653 2.569 2.569 0 0 0-1.814-.57h-.424z" class="cls-2" transform="translate(-342 -221.6)"/>
            </g>
            <g id="Group_268" transform="translate(41.661 .059)">
                <path id="Path_29" d="M380.374 223.905h-2.662l-.687 1.507H376l3.072-6.612 2.969 6.612h-1.024zm-.395-.878l-.922-2.121-.965 2.121z" class="cls-2" transform="translate(-376 -218.8)"/>
            </g>
        </g>
        <g id="Group_270" transform="translate(10.386 10.488)">
            <path id="Path_30" d="M71 81.589a9.419 9.419 0 0 1 2.984-6.978 9.772 9.772 0 0 1 7.124-2.911 10.064 10.064 0 0 1 10.005 10.006 9.471 9.471 0 0 1-2.969 7.036 10.183 10.183 0 0 1-13.882.322A9.472 9.472 0 0 1 71 81.589zm2.926.029a6.956 6.956 0 0 0 2.136 5.237 6.84 6.84 0 0 0 4.914 2.045 6.941 6.941 0 0 0 5.105-2.092 7.5 7.5 0 0 0 .029-10.327 6.8 6.8 0 0 0-5.061-2.092 6.9 6.9 0 0 0-5.076 2.092 7.109 7.109 0 0 0-2.047 5.137z" class="cls-2" transform="translate(-71 -71.7)"/>
        </g>
        <g id="Group_271" transform="translate(27.34 7.285)">
            <path id="Path_31" d="M202.508 68.026h-9.523l-2.472 5.4H186.9l11-23.624 10.605 23.624h-3.672zm-1.375-3.145l-3.291-7.563-3.452 7.563z" class="cls-2" transform="translate(-186.9 -49.8)"/>
        </g>
        <g id="Group_272" transform="translate(49.135 10.839)">
            <path id="Path_32" d="M335.9 93.336V74.1h2.9a13.113 13.113 0 0 1 3.072.293 4.808 4.808 0 0 1 1.96 1.009 5.225 5.225 0 0 1 1.287 1.828 5.611 5.611 0 0 1 .483 2.238 4.537 4.537 0 0 1-1.58 3.5 4.667 4.667 0 0 1 2.414 1.828 5.437 5.437 0 0 1-.7 6.831 5.239 5.239 0 0 1-2.15 1.331 12.824 12.824 0 0 1-3.277.366h-4.4zm2.9-10.971h.907a3.305 3.305 0 0 0 2.37-.717 2.81 2.81 0 0 0 .761-2.106 2.659 2.659 0 0 0-.775-2.063 3.208 3.208 0 0 0-2.238-.7H338.8zm0 8.236h1.8a4.481 4.481 0 0 0 2.9-.775 2.809 2.809 0 0 0 .029-4.213 4.842 4.842 0 0 0-3.247-.834h-1.463V90.6z" class="cls-2" transform="translate(-335.9 -74.1)"/>
        </g>
    </g>
    <g id="Group_274" transform="translate(9.201 40.68)">
        <path id="Rectangle_74" d="M0 0H56.128V1.828H0z" class="cls-1"/>
    </g>
</svg>
